<svg xmlns="http://www.w3.org/2000/svg" width="81" height="81" viewBox="0 0 81 81">
  <path fill="#7E00ED" d="M80.8345594,36.54455 L70.121878,18.1971818 C69.8203785,17.6796827 69.1867796,17.4627831 68.6296806,17.6823827 C68.6008806,17.6940827 65.6506858,18.8514807 62.5474911,18.8514807 C61.3531932,18.8514807 59.8627958,18.1305819 58.1347988,17.2962834 C55.7543029,16.1469854 52.791508,14.7159878 49.341814,14.7159878 C46.1792195,14.7159878 43.4990242,15.6186863 41.269728,16.927284 C38.8991321,15.2586869 36.2702367,14.2839886 33.4415416,14.044589 C30.0062475,13.7556895 26.9327529,14.9292875 24.4622572,15.8742858 C22.6721603,16.5600846 21.1295629,17.1594836 19.934365,17.0505838 C16.8590703,16.7904842 13.9988753,15.3873867 13.9718753,15.3738867 C13.4372763,15.1083872 12.7874774,15.2721869 12.442778,15.761786 L0.220799173,33.1389559 C-0.142800196,33.654655 -0.0483003601,34.3638538 0.437698797,34.7670531 L13.4255763,45.5328344 L13.3922763,45.5661344 C12.432878,46.5264327 11.9036789,47.8008305 11.9036789,49.1580281 C11.9036789,50.5161258 12.432878,51.7923236 13.3913763,52.7508219 C14.3507747,53.7093202 15.6269725,54.2385193 16.9841701,54.2385193 C17.2874696,54.2385193 17.5862691,54.2079194 17.8787686,54.1557195 C17.8850686,55.5039171 18.4124676,56.7702149 19.365566,57.7242133 C20.3249643,58.6827116 21.6011621,59.2119107 22.9583598,59.2119107 C23.393959,59.2119107 23.8205583,59.1525108 24.2318576,59.044511 C24.3038574,60.2424089 24.7898566,61.4196069 25.703355,62.3313053 C26.6627533,63.2907036 27.9380511,63.8181027 29.2952488,63.8181027 C29.6381482,63.8181027 29.9747476,63.7848028 30.303247,63.7200029 C32.5487431,66.519898 35.4404381,67.3964965 37.9982337,67.3964965 C39.6596308,67.3964965 41.1779282,67.0283972 42.2876263,66.5810979 C43.1327248,66.8582975 44.0525232,67.0094972 44.9840216,67.0094972 C47.0090181,67.0094972 48.9044148,66.3164984 50.1779126,65.1690004 C50.7836115,65.4173999 51.4370104,65.5487997 52.1120092,65.5487997 C53.4701069,65.5487997 54.7454047,65.0214006 55.703003,64.0620023 C56.4338017,63.3321036 56.9126009,62.4204051 57.1007006,61.4286069 C57.8737992,61.8660061 58.7368977,62.0892057 59.6017962,62.0892057 C60.901394,62.0892057 62.2045917,61.5942066 63.19369,60.6051083 C64.0432885,59.7555098 64.5535877,58.6557117 64.6606875,57.4740137 C65.1367866,57.6198135 65.6398858,57.6954133 66.1519849,57.6954133 C67.5091825,57.6954133 68.7862803,57.1671142 69.7438787,56.2086159 C70.703277,55.2492176 71.2324761,53.9739198 71.2324761,52.6167221 C71.2324761,51.2586245 70.703277,49.9824267 69.7438787,49.0239284 L67.7332821,47.0124319 L80.4790601,38.1465472 C80.9992592,37.7874478 81.1531589,37.0881491 80.8345594,36.54455 Z M18.8651669,51.0399249 C18.3629677,51.543924 17.6942689,51.8193235 16.9841701,51.8193235 C16.2731713,51.8193235 15.6062725,51.543024 15.1022734,51.0399249 C14.6000742,50.5377257 14.3237747,49.8699269 14.3237747,49.1580281 C14.3237747,48.4479294 14.6009742,47.7810305 15.1022734,47.2770314 L17.4080694,44.9721354 C17.9111685,44.4690363 18.5789674,44.1927367 19.2890661,44.1927367 C20.0009649,44.1927367 20.6687637,44.4699363 21.1709629,44.9721354 C21.674062,45.4752345 21.9494615,46.1421334 21.9494615,46.8531321 C21.9494615,47.5632309 21.672262,48.2310297 21.1709629,48.7341289 L18.8651669,51.0399249 Z M25.701555,55.1529177 L24.8402565,56.0160162 C24.3371574,56.5182154 23.6693585,56.7936149 22.9592598,56.7936149 C22.248261,56.7936149 21.5804621,56.5164154 21.077363,56.0160162 C20.5742639,55.5120171 20.2979644,54.8442183 20.2979644,54.1341195 C20.2979644,53.4231207 20.5751639,52.7553219 21.077363,52.2522228 L26.263154,47.0655318 C26.7662532,46.5633326 27.434052,46.2870331 28.1450508,46.2870331 C28.8551495,46.2870331 29.5238484,46.5642326 30.0269475,47.0664318 C30.5291466,47.5686309 30.8054462,48.2373297 30.8054462,48.9474285 C30.8054462,49.6566273 30.5291466,50.3217261 30.0296475,50.8248252 L25.705155,55.1511177 C25.704255,55.1511177 25.703355,55.1529177 25.701555,55.1529177 Z M29.2961488,61.4025069 C28.58605,61.4025069 27.9182512,61.1253074 27.415152,60.6249083 C26.3792538,59.5899101 26.3792538,57.905113 27.412452,56.8656148 L31.7369445,52.5402223 C31.7396445,52.5366223 31.7423445,52.5330223 31.7450445,52.5312223 L32.601843,51.6735238 C33.1040422,51.1713246 33.771841,50.8959251 34.4837398,50.8959251 C35.1929386,50.8959251 35.8616374,51.1731246 36.3647365,51.6753238 C36.8669357,52.1775229 37.1432352,52.8462217 37.1432352,53.5563205 C37.1432352,54.2664193 36.8660357,54.9342181 36.3638365,55.4373172 L31.1780455,60.6249083 C30.6749464,61.1253074 30.0071475,61.4025069 29.2961488,61.4025069 Z M38.372633,63.2547037 C38.5418327,63.8298027 38.8865322,64.3590018 39.4364312,64.8702009 C37.5302345,65.1897003 34.7780393,65.0619006 32.5595431,62.6355048 C32.6720429,62.5419049 32.7836427,62.4420051 32.8889425,62.3367053 L38.0756336,57.1500143 C38.1395334,57.0861144 38.1971333,57.0177145 38.2565332,56.9493146 C40.0682301,58.3749122 39.6659308,59.0886109 39.0476319,60.176709 C38.5823327,60.9930076 38.0045337,62.0118059 38.372633,63.2547037 Z M68.0365816,50.7348254 C68.5378808,51.2379245 68.8141803,51.9057234 68.8141803,52.6167221 C68.8141803,53.3259209 68.5369808,53.9937198 68.0365816,54.4977189 C67.5325825,55.001718 66.8656837,55.2753175 66.1546849,55.2753175 C65.4445861,55.2753175 64.7758873,54.999018 64.2727881,54.4977189 L52.251509,42.4773397 C51.7799098,42.0057405 51.0140111,42.0057405 50.5415119,42.4773397 C50.0690128,42.9480389 50.0690128,43.7148376 50.5415119,44.1873367 L61.480093,55.1259178 C61.481893,55.1295178 61.483693,55.1313178 61.485493,55.1331178 C61.9894921,55.6362169 62.2657916,56.3040157 62.2657916,57.0141145 C62.2657916,57.7251133 61.9876921,58.3929121 61.485493,58.8960113 C60.9823939,59.3982104 60.314595,59.6745099 59.6044962,59.6745099 C58.8943975,59.6745099 58.2265986,59.3973104 57.7234995,58.8960113 L55.710203,56.8836147 C55.708403,56.8818147 55.706603,56.8782148 55.704803,56.8782148 C55.704803,56.8764148 55.703003,56.8764148 55.701203,56.8746148 L48.5399154,49.7133272 C48.0683162,49.241728 47.3024176,49.241728 46.8299184,49.7133272 C46.3583192,50.1840264 46.3583192,50.950825 46.8299184,51.4233242 L54.000206,58.5954118 C54.4997051,59.0994109 54.7733046,59.7636097 54.7733046,60.4710085 C54.7733046,61.1820073 54.4952051,61.8498061 53.994806,62.3529053 C53.4917068,62.8569044 52.823908,63.1314039 52.1138092,63.1314039 L52.1120092,63.1314039 C51.4019105,63.1314039 50.7350116,62.8542044 50.2310125,62.3529053 L45.8336201,57.9555129 C45.3620209,57.4839137 44.5952223,57.4839137 44.1227231,57.9555129 C43.6511239,58.4280121 43.6511239,59.1948107 44.1227231,59.6664099 L48.1547161,63.6975029 C47.3321175,64.254602 46.1855195,64.5921014 44.9840216,64.5921014 C44.187523,64.5921014 43.4090243,64.4481016 42.7286255,64.1790021 C41.0204285,63.2808037 40.7369289,62.7183046 40.691029,62.5671049 C40.6208291,62.3286053 40.8269288,61.939806 41.1500282,61.370107 C42.1733265,59.5701101 42.9338251,57.4434138 39.4058313,54.7884184 C39.5048311,54.3897191 39.562431,53.9775198 39.562431,53.5554205 C39.562431,52.1973229 39.0341319,50.9229251 38.0747336,49.9635267 C37.1162352,49.0041284 35.8400374,48.4749293 34.4828398,48.4749293 C34.0472405,48.4749293 33.6206413,48.5352292 33.209342,48.642329 C33.1364421,47.3994312 32.623443,46.2429332 31.7360445,45.3564347 C30.7775462,44.3979364 29.5013484,43.8687373 28.1441508,43.8687373 C26.7869531,43.8687373 25.5107553,44.3979364 24.551357,45.3564347 L24.2282576,45.6795342 C24.0140579,44.7714357 23.5577587,43.9380372 22.8818599,43.2612384 C21.9233616,42.30184 20.6471638,41.7744409 19.2890661,41.7744409 C17.9318685,41.7744409 16.6565707,42.30184 15.6971723,43.2612384 L15.1364733,43.8219374 C15.1076734,43.7922374 15.0815734,43.7625375 15.0491735,43.7337375 L2.84249463,33.6159551 L13.8512755,17.9658822 C15.0707734,18.4680813 17.3099696,19.25738 19.7309654,19.4616796 C21.4697623,19.6029794 23.3453591,18.8919806 25.3280557,18.1341819 C27.6833516,17.2323835 30.3500469,16.2072852 33.2381419,16.4556848 C35.3369383,16.6329845 37.3070349,17.2935834 39.1205317,18.4077814 C36.7688358,20.2851782 35.0822387,22.5207743 34.0166406,24.2118714 C33.4379416,25.1307698 28.3961503,33.3153556 29.722748,37.4472484 C30.0386475,38.4291467 30.6875464,39.1446455 31.6001448,39.5172448 C32.2688436,39.7908444 32.9519424,39.9285441 33.6305413,39.9285441 C36.8210357,39.9285441 39.2366315,36.9891492 41.5703275,34.1469542 C43.2794245,32.0652578 45.0425215,29.9205615 46.7624185,29.4606623 L57.7567994,40.4568432 L58.9213974,41.6205412 L65.0008869,47.7009307 C65.0026869,47.7009307 65.0026869,47.7009307 65.0026869,47.7009307 L68.0365816,50.7348254 Z M65.9962852,45.2736349 L59.4685965,38.7450462 C59.4667965,38.7441462 59.4667965,38.7441462 59.4658965,38.7432462 L48.0368163,27.314166 C47.8091167,27.0864664 47.4995172,26.9595666 47.1818178,26.9595666 C47.1557178,26.9595666 47.1269179,26.9604666 47.1008179,26.9622666 C44.181223,27.1566663 41.9033269,29.9295615 39.7001307,32.6115568 C37.7219342,35.0190526 35.6762377,37.5084483 33.6296413,37.5084483 C33.2615419,37.5084483 32.8970425,37.4328485 32.5136432,37.2762487 C32.3318435,37.2015489 32.1464438,37.0809491 32.026744,36.7065497 C31.3643452,34.6437533 33.6134413,29.3931624 36.065037,25.5006691 C38.0333336,22.3767746 42.3749261,17.1342836 49.341814,17.1342836 C52.238009,17.1342836 54.8102045,18.3780815 57.0827006,19.4751796 C58.9942973,20.397678 60.7996942,21.2697765 62.5474911,21.2697765 C64.9774869,21.2697765 67.2751829,20.6721775 68.5315808,20.2752782 L78.181364,36.7983496 L65.9962852,45.2736349 Z"/>
</svg>
