<svg xmlns="http://www.w3.org/2000/svg" width="61" height="51" viewBox="0 0 61 51">
  <path fill="#D0021B" d="M750.978937,516.715797 C750.91228,516.433895 750.697367,516.211604 750.418861,516.136609 L739.631074,513.230289 C739.61599,513.226251 739.600714,513.227597 739.585535,513.224472 C739.560825,513.219329 739.536595,513.217694 739.511263,513.214954 C739.431724,513.206397 739.353287,513.208704 739.276238,513.22404 C739.265129,513.226251 739.254498,513.222598 739.243388,513.22529 C739.239557,513.226203 739.236924,513.229087 739.233093,513.230097 C739.145461,513.252643 739.06415,513.292833 738.988442,513.344704 C738.967804,513.358837 738.950229,513.374365 738.931219,513.390325 C738.908377,513.409314 738.88271,513.42388 738.861832,513.445658 L729.57901,523.154062 L716.033557,514.026383 C716.015982,514.014461 715.994529,514.010183 715.976045,513.999799 C715.943004,513.981146 715.91025,513.966724 715.87491,513.953024 C715.851063,513.943793 715.830328,513.927881 715.805619,513.921007 L690.993709,507.029217 C690.645864,506.931148 690.278099,507.086136 690.101111,507.401497 C689.924124,507.716858 689.983886,508.112597 690.245919,508.36104 L723.205127,539.615853 L706.693846,551.953532 C706.419938,552.158132 706.309225,552.517335 706.420321,552.841157 C706.529501,553.159595 706.827927,553.372656 707.162364,553.372656 C707.16811,553.372656 707.17424,553.372656 707.180369,553.372656 L724.010188,552.988646 L724.128994,557.234673 C724.138188,557.561571 724.348121,557.849242 724.656124,557.956157 C724.740404,557.986155 724.826982,558 724.913177,558 C725.141498,558 725.36369,557.900008 725.515393,557.716944 L744.835339,534.481768 C744.840223,534.475903 744.840558,534.467827 744.845251,534.461818 C744.907838,534.38216 744.951894,534.290052 744.980242,534.190252 C744.985605,534.171359 744.993123,534.154581 744.997098,534.135352 C744.999636,534.122949 745.006148,534.112085 745.008112,534.099489 C745.023004,534.004352 745.014624,533.910946 744.995949,533.819991 C744.994081,533.810809 744.998056,533.801723 744.995853,533.792589 L742.784855,524.596742 L750.737208,517.485354 C750.952504,517.293061 751.045212,516.997314 750.978937,516.715797 Z M739.00118,515.574488 L742.997756,532.196411 L730.901481,524.045245 L739.00118,515.574488 Z M724.915763,538.726257 L717.127611,516.660464 L742.395445,533.687213 L724.915763,538.726257 Z M714.993518,515.329795 L722.597212,536.873223 L693.619018,509.392886 L714.993518,515.329795 Z M709.605323,551.74124 L723.680971,541.223425 L723.966133,551.413572 L709.605323,551.74124 Z M725.224102,540.275804 L741.992579,535.442273 L725.639131,555.110217 L725.224102,540.275804 Z M742.367431,522.860719 L740.500447,515.095582 L748.607999,517.279985 L742.367431,522.860719 Z" transform="translate(-690 -507)"/>
</svg>
