<svg xmlns="http://www.w3.org/2000/svg" width="81" height="81" viewBox="0 0 81 81">
  <g fill="#D0021B">
    <path d="M36.086 52.317C36.187 52.317 36.286 52.311 36.386 52.297 36.476 52.285 36.564 52.261 36.647 52.225L48.37 47.204C48.509 47.145 48.632 47.056 48.73 46.941L79.297 11.827C79.958 11.068 80.239 10.069 80.087 9.014 79.943 8.014 79.422 7.078 78.618 6.38L73.301 1.75C71.6.269 69.138.306 67.812 1.829L37.244 36.943C37.144 37.056 37.073 37.191 37.033 37.336L33.675 49.639C33.652 49.726 33.64 49.816 33.64 49.907 33.642 50.582 33.952 51.237 34.488 51.704 34.944 52.102 35.514 52.317 36.086 52.317zM36.033 50.312C35.956 50.299 35.873 50.257 35.801 50.195 35.73 50.133 35.678 50.057 35.655 49.983L36.275 47.713 38.197 49.385 36.033 50.312zM64.041 9.205L65.654 10.609 41.245 38.648 39.633 37.244 64.041 9.205zM66.315 6.593L74.785 13.966 73.824 15.07 65.354 7.697 66.315 6.593zM67.162 11.922L69.39 13.862 44.982 41.902 42.753 39.962 67.162 11.922zM70.898 15.174L72.511 16.578 48.101 44.617 46.489 43.213 70.898 15.174zM69.319 3.142C69.923 2.452 71.118 2.503 71.988 3.258L77.305 7.888C77.746 8.273 78.032 8.774 78.107 9.299 78.174 9.769 78.061 10.2 77.789 10.515L76.097 12.459 67.627 5.086 69.319 3.142zM38.643 39.033L46.466 45.844 40.236 48.512 36.858 45.572 38.643 39.033zM26.335 48.976L15.249 3.761C15.01 2.782 14.354 1.977 13.404 1.492 12.506 1.034 11.438.923 10.405 1.174L3.556 2.853C2.522 3.107 1.63 3.7 1.044 4.523.426 5.391.218 6.409.457 7.386L11.543 52.602C11.579 52.748 11.647 52.884 11.743 53L19.862 62.834C19.92 62.903 19.987 62.965 20.061 63.018 20.453 63.291 20.924 63.433 21.412 63.433 21.613 63.433 21.817 63.409 22.019 63.36 22.71 63.19 23.287 62.75 23.598 62.15 23.64 62.07 23.67 61.984 23.69 61.896L26.34 49.422C26.373 49.274 26.37 49.122 26.335 48.976zM22.725 56.821L18.373 57.888 14.06 52.663 24.133 50.193 22.725 56.821zM3.49 11.354L14.395 8.681 14.743 10.101 3.838 12.775 3.49 11.354zM21.997 48.657L13.146 12.553 15.221 12.044 24.073 48.147 21.997 48.657zM11.202 13.03L20.053 49.134 17.186 49.837 8.334 13.734 11.202 13.03zM2.675 5.683C2.983 5.25 3.465 4.935 4.033 4.796L10.882 3.117C11.451 2.975 12.024 3.033 12.496 3.274 12.92 3.49 13.207 3.831 13.306 4.236L13.919 6.737 3.014 9.41 2.4 6.909C2.302 6.505 2.398 6.069 2.675 5.683zM4.315 14.719L6.39 14.21 15.242 50.313 13.167 50.822 4.315 14.719zM21.774 61.295C21.718 61.35 21.636 61.394 21.545 61.416 21.451 61.439 21.36 61.437 21.285 61.415L19.788 59.601 22.263 58.994 21.774 61.295zM78.101 40.576C78.011 40.562 77.921 40.56 77.83 40.571L65.162 42.05C65.013 42.068 64.869 42.118 64.742 42.199L25.446 67.162C24.595 67.702 24.043 68.58 23.887 69.635 23.741 70.634 23.975 71.68 24.546 72.578L28.326 78.529C29.141 79.814 30.487 80.535 31.801 80.535 32.433 80.535 33.058 80.368 33.612 80.015L72.908 55.052C73.035 54.972 73.142 54.864 73.221 54.736L79.942 43.897C79.99 43.82 80.027 43.737 80.052 43.65 80.24 43.002 80.131 42.286 79.749 41.686 79.369 41.086 78.768 40.681 78.101 40.576zM39.325 74.018L38.179 72.214 69.557 52.28 70.703 54.084 39.325 74.018zM36.403 75.874L30.381 66.396 31.617 65.611 37.638 75.09 36.403 75.874zM64.682 44.606L65.828 46.41 34.451 66.344 33.304 64.539 64.682 44.606zM37.107 70.525L35.523 68.031 66.901 48.098 68.485 50.592 37.107 70.525zM32.54 78.328C31.763 78.819 30.632 78.427 30.015 77.457L26.235 71.506C25.922 71.012 25.791 70.45 25.868 69.925 25.936 69.455 26.168 69.073 26.519 68.85L28.693 67.469 34.715 76.947 32.54 78.328zM72.161 52.651L66.599 43.896 73.331 43.11 75.732 46.89 72.161 52.651zM76.903 45.003L75.537 42.852 77.873 42.579C77.942 42.613 78.011 42.677 78.061 42.758 78.112 42.838 78.14 42.926 78.142 43.003L76.903 45.003z"/>
  </g>
</svg>
