<svg xmlns="http://www.w3.org/2000/svg" width="81" height="81" viewBox="0 0 81 81">
  <path fill="#7ED321" d="M5.422,61.501 L23.448,61.501 C25.885,61.501 27.867,59.519 27.867,57.082 L27.867,53.964 C27.867,53.411 27.42,52.964 26.867,52.964 L24.431,52.964 L15.596,13.864 C16.703,13.349 17.866,12.739 19.091,12.004 C28.633,6.273 37.264,6.239 39.945,6.397 L39.945,66.426 L30.962,66.426 C28.17,66.426 25.902,68.662 25.824,71.436 L23.861,71.436 C23.308,71.436 22.861,71.883 22.861,72.436 L22.861,79.001 C22.861,79.554 23.308,80.001 23.861,80.001 L58.03,80.001 C58.583,80.001 59.03,79.554 59.03,79.001 L59.03,72.436 C59.03,71.883 58.583,71.436 58.03,71.436 L56.447,71.436 C56.369,68.662 54.101,66.426 51.308,66.426 L41.945,66.426 L41.945,6.396 C44.626,6.239 53.258,6.272 62.8,12.003 C64.005,12.727 65.152,13.33 66.243,13.839 L57.401,52.963 L55.081,52.963 C54.528,52.963 54.081,53.41 54.081,53.963 L54.081,57.081 C54.081,59.518 56.063,61.5 58.5,61.5 L76.526,61.5 C78.963,61.5 80.944,59.518 80.944,57.081 L80.944,53.963 C80.944,53.41 80.497,52.963 79.944,52.963 L77.394,52.963 L68.793,14.902 C71.798,15.99 74.251,16.303 76.078,16.303 C78.43,16.303 79.744,15.785 79.86,15.738 C80.369,15.528 80.609,14.95 80.403,14.44 C80.197,13.93 79.615,13.684 79.104,13.886 C79.05,13.907 73.395,16.034 63.828,10.288 C53.875,4.312 45.021,4.202 41.943,4.385 L41.943,1 C41.943,0.447 41.496,0 40.943,0 C40.39,0 39.943,0.447 39.943,1 L39.943,4.385 C36.866,4.202 28.011,4.312 18.059,10.288 C16.662,11.127 15.359,11.782 14.134,12.316 C14.097,12.328 14.064,12.345 14.029,12.361 C6.932,15.424 2.831,13.905 2.789,13.888 C2.281,13.681 1.694,13.921 1.483,14.432 C1.273,14.942 1.516,15.527 2.027,15.738 C2.143,15.786 3.458,16.303 5.809,16.303 C7.623,16.303 10.056,15.993 13.033,14.923 L4.436,52.963 L2,52.963 C1.447,52.963 1,53.41 1,53.963 L1,57.081 C1.003,59.518 2.986,61.501 5.422,61.501 Z M57.031,78.001 L24.862,78.001 L24.862,73.436 L57.031,73.436 L57.031,78.001 Z M51.309,68.425 C52.998,68.425 54.371,69.764 54.448,71.435 L27.825,71.435 C27.902,69.764 29.274,68.425 30.963,68.425 L51.309,68.425 Z M78.946,57.082 C78.946,58.416 77.861,59.501 76.528,59.501 L58.501,59.501 C57.167,59.501 56.082,58.416 56.082,57.082 L56.082,54.964 L78.945,54.964 L78.945,57.082 L78.946,57.082 Z M59.454,52.964 L67.4,17.802 L75.345,52.964 L59.454,52.964 Z M14.436,17.801 L22.381,52.963 L6.49,52.963 L14.436,17.801 Z M3.003,54.964 L25.867,54.964 L25.867,57.082 C25.867,58.416 24.782,59.501 23.448,59.501 L5.422,59.501 C4.088,59.501 3.003,58.416 3.003,57.082 L3.003,54.964 Z"/>
</svg>
