<svg xmlns="http://www.w3.org/2000/svg" width="52" height="44" viewBox="0 0 52 44">
  <path fill="#008DD0" d="M160.988582,30.0371788 L155.830256,27.2620045 L157.050291,20.0776144 C157.052083,20.0671161 157.048132,20.0574591 157.049339,20.0469974 C157.056436,19.9866047 157.055082,19.9263949 157.043706,19.8664046 C157.041585,19.8552479 157.042389,19.8437253 157.039646,19.8327881 C157.02516,19.7748096 157.00314,19.7182943 156.970986,19.6655833 L149.629341,7.62889051 C149.578715,7.54578195 149.508775,7.47613467 149.425374,7.4263866 L137.139356,0.0847414444 C136.938022,-0.0352391969 136.684014,-0.0276306754 136.490582,0.106396481 L126.751665,6.84872367 C126.559111,6.98216553 126.461956,7.21510358 126.502632,7.44570058 L127.516798,13.1802635 L121.369802,12.4901552 C121.362193,12.4889847 121.354292,12.4883994 121.346391,12.4878142 C121.219679,12.4790351 121.106137,12.5065428 121.006348,12.5627289 L111.524658,17.7025829 C111.352003,17.7962264 111.236119,17.9682962 111.214464,18.1631916 L110.115909,28.1016861 C110.110056,28.1572869 110.11152,28.2128877 110.120884,28.2679032 L112.118415,40.0546851 C112.15997,40.3004991 112.349598,40.4948093 112.594241,40.5428015 L118.987161,41.7911855 C119.025497,41.798794 119.063832,41.8023057 119.102167,41.8023057 C119.232097,41.8023057 119.359687,41.7601661 119.464743,41.6799839 C119.600818,41.5763908 119.686268,41.4201234 119.699729,41.2498094 L119.965186,37.8529305 L124.339835,34.9276706 L140.688149,43.9256705 C140.778281,43.9754186 140.877777,44 140.977273,44 C141.074428,44 141.171876,43.9765891 141.260252,43.9291821 C141.439052,43.8331976 141.557277,43.6535193 141.574543,43.4516006 L141.977027,38.7057441 L145.412168,39.3453361 C145.448747,39.3517741 145.485327,39.3552857 145.521906,39.3552857 C145.667346,39.3552857 145.809274,39.3026113 145.919891,39.2042857 C146.058015,39.0813787 146.132051,38.9017004 146.120053,38.7167545 L144.816617,18.7304659 L150.476265,19.631601 L152.175272,28.480942 C152.194878,28.5839498 152.2417,28.6805196 152.310177,28.7595313 L154.20792,30.9566403 C154.212456,30.9619078 154.219406,30.9636636 154.224088,30.9687481 C154.265971,31.0141798 154.31689,31.0480523 154.370991,31.0787791 C154.388549,31.0887288 154.402376,31.1042385 154.420776,31.1123225 C154.494703,31.1449148 154.575507,31.1644117 154.661505,31.1644117 L160.704726,31.1644117 C160.979218,31.1644117 161.218887,30.9777101 161.2859,30.7114115 C161.352914,30.445113 161.230592,30.1676944 160.988582,30.0371788 Z M136.855499,1.31147048 L148.68325,8.37920862 L155.271943,19.1815639 L129.057342,15.0074079 L127.749846,7.61542935 L136.855499,1.31147048 Z M140.607894,40.6646477 L130.440668,16.4415058 L142.499125,18.3614522 L140.607894,40.6646477 Z M121.848846,13.7502447 L127.734482,14.4113455 L127.951179,15.6365747 C127.99566,15.8882414 128.194945,16.0843073 128.447196,16.1241058 L129.069267,16.223163 C129.076693,16.2534143 129.075046,16.2841044 129.087483,16.3137338 L139.927004,42.1385441 L120.467313,31.4280033 L121.848846,13.7502447 Z M113.231017,39.4460028 L111.316594,28.1502636 L112.371545,18.6068273 L120.616264,14.1376945 L118.556987,40.4860302 L113.231017,39.4460028 Z M120.08407,36.3319563 L120.364781,32.7398161 L123.157403,34.2768487 L120.08407,36.3319563 Z M142.078827,37.5050963 L143.639454,19.1025522 L144.873718,38.025549 L142.078827,37.5050963 Z M151.735111,19.8320199 L155.767302,20.4740261 L154.283712,29.2107755 L153.322111,28.0975892 L151.735111,19.8320199 Z M155.37111,29.9657757 L155.61846,28.5092911 L158.32589,29.9657757 L155.37111,29.9657757 Z" transform="translate(-110)"/>
</svg>
