<svg xmlns="http://www.w3.org/2000/svg" width="81" height="81" viewBox="0 0 81 81">
  <g fill="#F5A623" transform="translate(5 2)">
    <path d="M1.1 36.4L10.5 38.6 15 51.3C15.1 51.6 15.4 51.9 15.7 51.9L47 59.1C47.1 59.1 47.1 59.1 47.2 59.1 47.5 59.1 47.8 59 48 58.7L60.4 42.5 61.5 45.7C59.8 46.8 59 48.9 59.7 50.9L61.8 56.6C61.9 56.8 62.1 57.1 62.3 57.2 62.4 57.3 62.6 57.3 62.7 57.3 62.8 57.3 62.9 57.3 63 57.2L69.5 54.9C70 54.7 70.3 54.1 70.1 53.6L68 47.9C67.6 46.8 66.8 45.9 65.7 45.4 65 45 64.2 44.9 63.4 45L61.8 40.6 67.4 33.2C67.6 32.9 67.7 32.6 67.5 32.3L63 19.6 68.9 11.9C69.1 11.6 69.2 11.3 69 11 68.8 10.7 68.6 10.4 68.3 10.4L27.2.9C26.8.8 26.4 1 26.2 1.3L.5 34.8C.3 35.1.2 35.4.4 35.7.6 36 .7 36.3 1.1 36.4zM64.9 47.2C65.5 47.5 65.9 48 66.2 48.6L67.9 53.4 63.3 55 61.6 50.2C61.4 49.6 61.4 48.9 61.7 48.3 62 47.7 62.5 47.3 63.1 47 63.4 46.9 63.6 46.9 63.9 46.9 64.3 47 64.6 47.1 64.9 47.2zM46.8 57L16.7 50.1 12.8 39.1 42.2 45.9C42.3 45.9 42.3 45.9 42.4 45.9 42.7 45.9 43 45.8 43.2 45.5L55.6 29.3 59.5 40.3 46.8 57zM65.5 32.5L61 38.4 57.1 27.4 61.6 21.5 65.5 32.5zM27.3 3L66.3 12 55.5 26.2 34.4 21.2C33.9 21.1 33.3 21.4 33.2 21.9 33.1 22.4 33.4 23 33.9 23.1L54.1 27.9 42 43.8 3 34.8 27.3 3zM22.8 60.6L22.8 75.7C22.8 76.3 23.2 76.7 23.8 76.7 24.4 76.7 24.8 76.3 24.8 75.7L24.8 60.6C24.8 60 24.4 59.6 23.8 59.6 23.2 59.6 22.8 60.1 22.8 60.6zM30.4 62.6C30.4 62 30 61.6 29.4 61.6 28.8 61.6 28.4 62 28.4 62.6L28.4 67.2C28.4 67.8 28.8 68.2 29.4 68.2 30 68.2 30.4 67.8 30.4 67.2L30.4 62.6zM29.4 70.3C28.8 70.3 28.4 70.7 28.4 71.3L28.4 75.9C28.4 76.5 28.8 76.9 29.4 76.9 30 76.9 30.4 76.5 30.4 75.9L30.4 71.3C30.4 70.7 29.9 70.3 29.4 70.3zM42.2 62.9L42.2 67.5C42.2 68.1 42.6 68.5 43.2 68.5 43.8 68.5 44.2 68.1 44.2 67.5L44.2 62.9C44.2 62.3 43.8 61.9 43.2 61.9 42.6 61.9 42.2 62.3 42.2 62.9zM46.6 63.7L46.6 75.7C46.6 76.3 47 76.7 47.6 76.7 48.2 76.7 48.6 76.3 48.6 75.7L48.6 63.7C48.6 63.1 48.2 62.7 47.6 62.7 47 62.7 46.6 63.1 46.6 63.7zM63.5 60.6C63.5 60 63.1 59.6 62.5 59.6 61.9 59.6 61.5 60 61.5 60.6L61.5 67.1C61.5 67.7 61.9 68.1 62.5 68.1 63.1 68.1 63.5 67.7 63.5 67.1L63.5 60.6zM62.5 70.2C61.9 70.2 61.5 70.6 61.5 71.2L61.5 75.8C61.5 76.4 61.9 76.8 62.5 76.8 63.1 76.8 63.5 76.4 63.5 75.8L63.5 71.2C63.5 70.7 63.1 70.2 62.5 70.2z"/>
  </g>
</svg>
