<svg xmlns="http://www.w3.org/2000/svg" width="60" height="32" viewBox="0 0 60 32">
  <path fill="#7ED321" d="M163.775943,11.4474461 C163.521921,11.2897119 163.19315,11.3270866 162.980937,11.536132 L156.3932,17.9909988 L152.313729,14.8791935 L154.449673,12.4248911 C154.630212,12.2171128 154.660301,11.9181147 154.524422,11.6792963 C154.388859,11.439211 154.114883,11.3131503 153.845658,11.3606606 L148.873271,12.2548439 L141.669009,6.75948697 L139.775011,2.62953618 C139.7722,2.62335983 139.766578,2.6197966 139.763569,2.61377859 C139.730589,2.54710582 139.687315,2.48684694 139.633232,2.43482317 C139.620998,2.42302477 139.607497,2.414275 139.594432,2.40354555 C139.571508,2.38466018 139.550841,2.36343895 139.525107,2.3476418 L135.866498,0.0962875217 C135.764509,0.0335739304 135.646683,0 135.526641,0 L130.461094,0 C130.147209,0 129.878301,0.224882049 129.822555,0.534015671 L129.690991,1.26630758 L112.63745,1.26630758 C112.485734,1.26630758 112.338768,1.31951907 112.22221,1.41644009 L106.875085,5.87227184 C106.769295,5.96032425 106.694546,6.08005017 106.660972,6.21371246 L105.019333,12.7802681 C105.004763,12.8385474 104.998428,12.8987271 105.000329,12.9589067 L105.469414,27.0770646 C105.481133,27.4267403 105.767778,27.7042004 106.117771,27.7042004 L109.63575,27.7042004 C109.940132,27.7042004 110.203656,27.4926213 110.26922,27.1948902 L110.78249,24.8668067 L114.209407,19.4300854 L127.570805,27.5299565 L129.346819,30.3989841 C129.350184,30.4044082 129.356044,30.4075756 129.359567,30.4128809 C129.379324,30.4429707 129.407949,30.4658944 129.432931,30.4926982 C129.465792,30.5278162 129.496555,30.5633698 129.536187,30.5903318 C129.543511,30.5953204 129.547312,30.6032784 129.554914,30.6080294 C129.610065,30.6423952 129.668543,30.666665 129.728247,30.6828581 C129.729593,30.6832144 129.730623,30.684323 129.731969,30.6846793 L134.328748,31.9041101 C134.383543,31.9186799 134.439288,31.925648 134.495034,31.925648 C134.621411,31.925648 134.746522,31.8889068 134.853895,31.8173246 C135.008462,31.7147024 135.111717,31.5506335 135.137373,31.366927 L136.187984,23.8458105 L137.29529,25.4129376 C137.405198,25.5681378 137.577185,25.6675927 137.766592,25.6846964 L140.862046,25.9659574 C140.881684,25.9678578 140.901321,25.9684912 140.920642,25.9684912 C141.103715,25.9684912 141.279187,25.8912078 141.402713,25.7537447 C141.539543,25.6017118 141.596872,25.3939334 141.556963,25.1931233 L140.962531,22.2012815 L151.587336,25.0556601 C151.629977,25.0673793 151.672973,25.0688442 151.715891,25.0716157 C151.729392,25.0724471 151.741942,25.0778316 151.755522,25.0778316 C151.757067,25.0778316 151.758571,25.0770793 151.760115,25.0770793 C151.828095,25.0767626 151.894728,25.066152 151.958471,25.0450099 C151.958708,25.0449307 151.958946,25.0449703 151.959183,25.0448911 L160.542709,22.2069431 C160.739085,22.1423291 160.892702,21.9871288 160.956365,21.7907529 L164.052136,12.198742 C164.143672,11.9143139 164.029964,11.6045468 163.775943,11.4474461 Z M151.524622,23.6955989 L136.72778,19.7200962 L137.749172,5.40093025 L155.512003,18.9502711 L151.524622,23.6955989 Z M152.260715,12.9639746 L151.280142,14.0907999 L150.271816,13.3216479 L152.260715,12.9639746 Z M138.324126,4.20806559 L138.904068,3.84338453 L139.473281,5.08463047 L138.324126,4.20806559 Z M135.342934,1.29734766 L137.957584,2.90636286 L136.842042,3.60761475 C136.823909,3.61905684 136.81508,3.6393279 136.798333,3.65231402 C136.754109,3.68644225 136.70739,3.7168884 136.671955,3.76344852 C136.663483,3.77457386 136.662018,3.78811428 136.654377,3.79959594 C136.634937,3.82861682 136.624287,3.85973604 136.609717,3.89152833 C136.583903,3.948026 136.564028,4.00381098 136.555357,4.06363434 C136.552863,4.08018376 136.541738,4.09376381 136.54051,4.11059034 L135.408815,19.9979522 L129.900314,28.8284127 L126.92221,24.017402 L131.003661,1.29734766 L135.342934,1.29734766 Z M106.745224,26.4068529 L106.299894,13.006417 L107.868367,6.73379177 L112.872151,2.56365524 L114.370942,2.56365524 L109.114403,26.4068528 L106.745224,26.4068528 Z M111.607545,21.1244608 L112.243827,18.2385274 L113.099606,18.7573398 L111.607545,21.1244608 Z M112.538985,16.8998062 L115.699646,2.56365524 L129.457953,2.56365524 L125.601108,24.0326052 C125.572918,24.1903394 125.603958,24.3525079 125.68821,24.488704 L126.067025,25.1006762 L112.538985,16.8998062 Z M133.95405,30.4623312 L130.913471,29.6558836 L134.977659,23.1404412 L133.95405,30.4623312 Z M140.115185,24.5951271 L138.182149,24.4196557 L136.450201,21.9683227 L136.582082,21.0244516 L139.564936,21.8258315 L140.115185,24.5951271 Z M159.82277,21.0787322 L153.723715,23.0953064 L156.925038,19.2854958 L162.009193,14.3043982 L159.82277,21.0787322 Z" transform="translate(-105)"/>
</svg>
