<svg xmlns="http://www.w3.org/2000/svg" width="81" height="81" viewBox="0 0 81 81">
  <g fill="#008DD0" transform="translate(5 2)">
    <path d="M69.8,50.5 L66.8,50.5 L66.8,5.5 C66.8,4.9 66.4,4.5 65.8,4.5 L36.4,4.5 L36.4,1.8 C36.4,1.2 36,0.8 35.4,0.8 C34.8,0.8 34.4,1.2 34.4,1.8 L34.4,4.5 L5,4.5 C4.4,4.5 4,4.9 4,5.5 L4,50.5 L1,50.5 C0.4,50.5 0,50.9 0,51.5 C0,52.1 0.4,52.5 1,52.5 L18.1,52.5 L13.6,77.6 C13.5,78.1 13.9,78.7 14.4,78.8 C14.5,78.8 14.5,78.8 14.6,78.8 C15.1,78.8 15.5,78.5 15.6,78 L20.2,52.5 L50.8,52.5 L55.3,78 C55.4,78.5 55.8,78.8 56.3,78.8 C56.4,78.8 56.4,78.8 56.5,78.8 C57,78.7 57.4,78.2 57.3,77.6 L52.8,52.5 L69.9,52.5 C70.5,52.5 70.9,52.1 70.9,51.5 C70.9,50.9 70.3,50.5 69.8,50.5 Z M6,6.5 L64.7,6.5 L64.7,50.5 L6,50.5 L6,6.5 Z"/>
    <path d="M16.4 35.3C14.3 35.3 12.6 37 12.6 39.1 12.6 41.2 14.3 42.9 16.4 42.9 18.5 42.9 20.2 41.2 20.2 39.1 20.2 37 18.5 35.3 16.4 35.3zM16.4 40.8C15.4 40.8 14.6 40 14.6 39 14.6 38 15.4 37.2 16.4 37.2 17.4 37.2 18.2 38 18.2 39 18.2 40 17.4 40.8 16.4 40.8zM28.8 24.1C30.9 24.1 32.6 22.4 32.6 20.3 32.6 18.2 30.9 16.5 28.8 16.5 26.7 16.5 25 18.2 25 20.3 25 22.4 26.7 24.1 28.8 24.1zM28.8 18.5C29.8 18.5 30.6 19.3 30.6 20.3 30.6 21.3 29.8 22.1 28.8 22.1 27.8 22.1 27 21.3 27 20.3 27 19.3 27.8 18.5 28.8 18.5zM45.2 24.1C47.3 24.1 49 22.4 49 20.3 49 18.2 47.3 16.5 45.2 16.5 43.1 16.5 41.4 18.2 41.4 20.3 41.4 22.4 43.1 24.1 45.2 24.1zM45.2 18.5C46.2 18.5 47 19.3 47 20.3 47 21.3 46.2 22.1 45.2 22.1 44.2 22.1 43.4 21.3 43.4 20.3 43.4 19.3 44.2 18.5 45.2 18.5zM36 35.3C33.9 35.3 32.2 37 32.2 39.1 32.2 41.2 33.9 42.9 36 42.9 38.1 42.9 39.8 41.2 39.8 39.1 39.8 37 38.1 35.3 36 35.3zM36 40.8C35 40.8 34.2 40 34.2 39 34.2 38 35 37.2 36 37.2 37 37.2 37.8 38 37.8 39 37.8 40 37 40.8 36 40.8zM55.7 35.3C53.6 35.3 51.9 37 51.9 39.1 51.9 41.2 53.6 42.9 55.7 42.9 57.8 42.9 59.5 41.2 59.5 39.1 59.5 37 57.8 35.3 55.7 35.3zM55.7 40.8C54.7 40.8 53.9 40 53.9 39 53.9 38 54.7 37.2 55.7 37.2 56.7 37.2 57.5 38 57.5 39 57.5 40 56.7 40.8 55.7 40.8zM12.8 33.2C13 33.5 13.3 33.7 13.6 33.7 13.8 33.7 14 33.6 14.1 33.5 14.6 33.2 14.7 32.6 14.4 32.1 14.2 31.8 9.4 24.2 15.3 17.5L15.3 18.5C15.3 19.1 15.7 19.5 16.3 19.5 16.9 19.5 17.3 19.1 17.3 18.5L17.3 15.2C17.3 15.2 17.3 15.2 17.3 15.2 17.3 15.1 17.3 15 17.3 14.9 17.3 14.9 17.3 14.9 17.3 14.8 17.3 14.8 17.3 14.7 17.3 14.7 17.3 14.6 17.2 14.6 17.2 14.5 17.2 14.5 17.2 14.5 17.1 14.4 17 14.3 16.9 14.3 16.8 14.2 16.8 14.2 16.8 14.2 16.7 14.2 16.6 14.2 16.6 14.1 16.5 14.1L13.7 13.7C13.2 13.6 12.6 14 12.6 14.6 12.5 15.1 12.9 15.7 13.5 15.7L14.2 15.8C6.8 23.8 12.7 33.1 12.8 33.2zM49.3 27.6L47.6 26.8C47.5 26.8 47.5 26.8 47.4 26.7 47.4 26.7 47.4 26.7 47.4 26.7 47.3 26.7 47.2 26.7 47.1 26.7 47.1 26.7 47 26.7 47 26.7 46.9 26.7 46.8 26.8 46.8 26.8 46.8 26.8 46.7 26.8 46.7 26.9 46.7 26.9 46.7 26.9 46.6 26.9 46.5 27 46.5 27 46.4 27.1 46.4 27.1 46.4 27.1 46.4 27.1L45.2 28.9C44.9 29.4 45 30 45.5 30.3 45.7 30.4 45.9 30.5 46 30.5 46.2 30.5 46.4 30.4 46.6 30.3 46.8 35.1 42.4 37.3 42.2 37.4 41.7 37.6 41.5 38.2 41.7 38.7 41.9 39.1 42.2 39.3 42.6 39.3 42.7 39.3 42.9 39.3 43 39.2 43.1 39.2 49.4 36.1 48.5 29.5 49 29.6 49.4 29.4 49.6 28.9 50 28.4 49.8 27.9 49.3 27.6zM54.6 19.4C54.6 19.4 54.7 19.4 54.6 19.4 55.2 19.4 55.6 19 55.7 18.5L55.8 17.5C61.3 24.5 56.1 31.8 55.9 32.1 55.6 32.5 55.7 33.2 56.1 33.5 56.3 33.6 56.5 33.7 56.7 33.7 57 33.7 57.3 33.6 57.5 33.3 57.6 33.2 64 24.2 57.1 15.9L57.8 15.8C58.4 15.8 58.8 15.3 58.7 14.7 58.6 14.1 58.2 13.7 57.6 13.8L54.8 14C54.7 14 54.7 14 54.6 14 54.5 14 54.4 14 54.4 14.1 54.3 14.1 54.3 14.2 54.2 14.2 54.2 14.2 54.1 14.3 54.1 14.3 54.1 14.3 54 14.4 54 14.4 54 14.4 54 14.5 53.9 14.5 53.9 14.5 53.9 14.5 53.9 14.6 53.9 14.7 53.9 14.8 53.9 14.9 53.9 14.9 53.9 14.9 53.9 14.9 53.9 14.9 53.9 14.9 53.9 14.9L53.7 18.2C53.6 18.8 54.1 19.3 54.6 19.4zM30 30.7L29.8 30.9 29.8 26.7C29.8 26.1 29.4 25.7 28.8 25.7 28.2 25.7 27.8 26.1 27.8 26.7L27.8 30.9 27.6 30.7C27.2 30.3 26.6 30.4 26.2 30.8 25.8 31.2 25.9 31.8 26.3 32.2L28.2 33.8C28.3 33.8 28.3 33.9 28.4 33.9 28.4 33.9 28.5 33.9 28.5 34 28.6 34 28.7 34.1 28.9 34.1 28.9 34.1 28.9 34.1 28.9 34.1 28.9 34.1 28.9 34.1 28.9 34.1 29 34.1 29.2 34.1 29.3 34 29.3 34 29.3 34 29.3 34 29.4 34 29.5 33.9 29.5 33.8 29.5 33.8 29.5 33.8 29.5 33.8L31.4 32.2C31.8 31.8 31.9 31.2 31.5 30.8 31 30.3 30.4 30.3 30 30.7z"/>
  </g>
</svg>
