<svg xmlns="http://www.w3.org/2000/svg" width="44" height="33" viewBox="0 0 44 33">
  <path fill="#F5A623" d="M156.355556,6.08383956 L150.480556,0.146339559 C150.480434,0.146217509 150.480251,0.146186959 150.480129,0.146064909 C150.451961,0.117683559 150.420284,0.0923845093 150.385341,0.0711442593 C150.368831,0.0610734593 150.350643,0.0553666593 150.333309,0.0473405593 C150.322444,0.0423356593 150.312404,0.0368425093 150.301265,0.0326616093 C150.248683,0.0126420593 150.194149,0.00156420929 150.138423,3.83092869e-05 C150.128597,-0.000236340713 150.119319,0.00104540929 150.109493,0.00135055929 C150.057003,0.00296800929 150.005092,0.0120012093 149.954616,0.0305864093 C149.948055,0.0329667593 149.941402,0.0337297093 149.934902,0.0363847593 C149.932918,0.0372087093 149.930782,0.0373308093 149.928798,0.0381853093 L143.491298,2.78818531 C143.409755,2.82285326 143.338954,2.87876146 143.28622,2.94980641 L135.873317,12.9346086 L135.403408,12.4966814 C135.305751,12.4056169 135.173427,12.3572771 135.042568,12.3628923 C134.909267,12.3682634 134.78329,12.426613 134.693447,12.5252458 L131.246334,16.2991716 L129.904354,16.2991716 L114.281826,5.64731611 C114.274135,5.64206711 114.265041,5.64170086 114.257198,5.63694011 C114.214565,5.61109171 114.169643,5.59192666 114.122035,5.57987226 C114.111568,5.57718671 114.101955,5.57196821 114.091396,5.56998456 C114.035793,5.55966961 113.979091,5.56018841 113.922664,5.56906901 C113.905574,5.57175456 113.890132,5.57788861 113.873409,5.58234416 C113.849147,5.58875286 113.824306,5.59174356 113.800868,5.60190591 C113.785457,5.60861976 113.773433,5.61988076 113.758968,5.62796791 C113.741939,5.63742836 113.72607,5.64685831 113.710109,5.65836341 C113.667659,5.68903356 113.630367,5.72458656 113.599819,5.76612096 C113.596157,5.77109531 113.590511,5.77350621 113.587001,5.77866366 C113.586208,5.77985386 113.586208,5.78122716 113.585414,5.78241731 C113.552761,5.83112336 113.531307,5.88602451 113.51733,5.94376376 C113.513088,5.96137251 113.511867,5.97834031 113.509578,5.99613206 C113.50674,6.01767746 113.500087,6.03827681 113.500087,6.06040206 L113.500087,17.0772478 C113.500087,17.2242204 113.56454,17.3636247 113.676845,17.4585954 L121.658962,24.2298662 L115.677822,27.862404 C115.486415,27.978615 115.395595,28.2083513 115.456142,28.4244157 C115.516689,28.640236 115.713466,28.7896501 115.937587,28.7896501 L119.837551,28.7896501 L117.443447,31.4107439 C117.303798,31.5635759 117.273036,31.7867204 117.365322,31.971779 C117.450771,32.1421892 117.624599,32.2479021 117.812587,32.2479021 C117.828701,32.2479021 117.845302,32.2471697 117.861904,32.2454607 L145.736904,29.4954607 C145.863368,29.4830095 145.980556,29.4227068 146.06454,29.3267595 L146.53329,28.7896501 L148.961513,28.7896501 C149.110927,28.7896501 149.252529,28.7227556 149.347743,28.6072771 L154.573818,22.253029 C154.705165,22.0936052 154.724697,21.8697282 154.623134,21.6900407 L154.110225,20.779915 L152.585536,6.36298381 L155.916591,6.92832196 C155.944423,6.93320481 155.972255,6.93540206 156.000087,6.93540206 C156.184169,6.93540206 156.356533,6.83335126 156.443935,6.66611496 C156.544033,6.47324386 156.508388,6.23813646 156.355556,6.08383956 Z M144.008388,3.65464036 L149.676357,1.23325366 L151.173427,22.1253435 L148.660579,24.8518755 L136.609371,13.6206133 L144.008388,3.65464036 Z M128.700557,19.0863115 L126.784236,17.2991716 L130.332942,17.2991716 L128.700557,19.0863115 Z M125.71194,16.2991716 L119.139461,10.1697466 L128.129177,16.2991716 L125.71194,16.2991716 Z M114.500087,7.21030441 L125.160884,17.1523821 C125.161128,17.1526262 125.161312,17.1527788 125.161556,17.1530229 L128.026241,19.8245927 L123.654109,24.6112443 L114.500087,16.8458025 L114.500087,7.21030441 Z M117.724208,27.7896501 L122.462764,24.9117204 L122.979366,25.3499528 L120.750942,27.7896501 L117.724208,27.7896501 Z M145.441005,28.5198747 L119.061122,31.1224138 L135.091396,13.5726091 L147.992763,25.5962907 L145.441005,28.5198747 Z M148.725185,27.7896501 L147.406032,27.7896501 L149.06454,25.8892595 C149.064571,25.889229 149.064601,25.8891375 149.064632,25.8891069 L152.055263,22.6441423 C152.148525,22.5425798 152.196376,22.4070818 152.186122,22.2696306 L151.950771,18.984688 L153.583583,21.8824236 L148.725185,27.7896501 Z M152.872768,18.5840837 L151.783565,16.6513445 L151.027461,6.09854906 L151.561916,6.18924731 L152.872768,18.5840837 Z M150.953914,5.07187666 L150.720211,1.81012741 L154.551845,5.68247236 L150.953914,5.07187666 Z" transform="translate(-113)"/>
</svg>
