<svg xmlns="http://www.w3.org/2000/svg" width="12" height="12" viewBox="0 0 12 12">
  <path fill="#FFF" d="M109.778407,7.43601915 L105.414773,2.79945131 C105.119083,2.5337333 104.552077,2.42404246 104.221587,2.73126953 C103.89606,3.03386024 103.905742,3.6207144 104.230041,3.92450511 L107.298227,7.18034841 L98.8181813,7.18034841 C98.366327,7.18034841 98,7.54666454 98,7.99854606 C98,8.45042758 98.366327,8.81675461 98.8181813,8.81675461 L107.298227,8.81675461 L104.230041,12.0725979 C103.950851,12.3522795 103.899251,12.9597791 104.221587,13.2658335 C104.543841,13.5718606 105.131219,13.4740879 105.414773,13.1976244 L109.778407,8.56107296 C109.927725,8.40240033 110.000488,8.21623682 109.999998,7.99854606 C109.992361,7.80354618 109.912098,7.57816452 109.778407,7.43601915 Z" transform="translate(-98 -2)"/>
</svg>
